<?xml version="1.0" encoding="utf-8"?>
<svg viewBox="0 0 500 500" xmlns="http://www.w3.org/2000/svg" xmlns:bx="https://boxy-svg.com">
  <defs>
    <bx:guide x="100.569" y="-43.744" angle="90"/>
    <bx:guide x="118.698" y="-36.111" angle="90"/>
    <bx:guide x="118.698" y="-36.111" angle="90"/>
    <bx:guide x="-69.269" y="224.371" angle="0"/>
    <bx:guide x="-69.269" y="224.371" angle="0"/>
    <bx:guide x="-69.269" y="224.371" angle="0"/>
    <bx:guide x="-69.269" y="224.371" angle="0"/>
    <bx:guide x="-69.269" y="224.371" angle="0"/>
    <bx:guide x="350.556" y="310.244" angle="0"/>
    <bx:guide x="150.185" y="317.877" angle="0"/>
  </defs>
  <path d="M 50 50 L 450 50 L 450 450 L 50 450 Z" fill="none"/>
  <path d="M 108.333 277.039 L 108.333 310.373 C 154.333 310.373 191.667 347.707 191.667 393.707 L 225.001 393.707 C 225.001 329.207 172.833 277.039 108.333 277.039 Z M 108.333 343.707 L 108.333 393.707 L 158.333 393.707 C 158.333 366.039 136.001 343.707 108.333 343.707 Z M 108.333 210.373 L 108.333 243.707 C 191.167 243.707 258.333 310.873 258.333 393.707 L 291.667 393.707 C 291.667 292.373 209.667 210.373 108.333 210.373 Z M 358.333 27.207 L 191.667 27.039 C 173.333 27.039 158.333 42.039 158.333 60.373 L 158.333 183.207 C 169.833 185.873 181.001 189.373 191.667 193.873 L 191.667 93.707 L 358.333 93.707 L 358.333 310.373 L 307.833 310.373 C 316.501 331.207 321.833 353.539 323.667 377.039 L 358.333 377.039 C 376.667 377.039 391.667 362.039 391.667 343.707 L 391.667 60.373 C 391.667 42.039 376.667 27.207 358.333 27.207 Z"/>
  <path d="M 150 150 L 350 150 L 350 350 L 150 350 Z" fill="none"/>
  <path d="M 175 175 L 325 175 L 325 325 L 175 325 Z" fill="none"/>
  <path d="M 262.501 260.372 L 287.5 260.372 L 287.5 160.373 L 262.501 160.373 L 262.501 260.372 Z M 225.001 260.372 L 250 260.372 L 250 210.373 L 225.001 210.373 L 225.001 260.372 Z M 300.001 191.623 L 300.001 260.372 L 325 260.372 L 325 191.623 L 300.001 191.623 Z"/>
  <path d="M 152.35 433.146 L 152.35 438.406 L 144.62 438.406 L 144.62 464.426 L 138.28 464.426 L 138.28 438.406 L 130.68 438.406 L 130.68 433.146 L 152.35 433.146 ZM 178.339 445.796 L 178.339 450.886 L 168.499 450.886 L 168.499 459.186 L 180.139 459.186 L 180.139 464.426 L 162.179 464.426 L 162.179 433.146 L 180.099 433.146 L 180.099 438.406 L 168.499 438.406 L 168.499 445.796 L 178.339 445.796 ZM 196.289 433.146 L 196.289 459.186 L 207.379 459.186 L 207.379 464.426 L 189.969 464.426 L 189.969 433.146 L 196.289 433.146 ZM 233.383 445.796 L 233.383 450.886 L 223.543 450.886 L 223.543 459.186 L 235.183 459.186 L 235.183 464.426 L 217.223 464.426 L 217.223 433.146 L 235.143 433.146 L 235.143 438.406 L 223.543 438.406 L 223.543 445.796 L 233.383 445.796 ZM 245.013 433.146 L 253.263 433.146 L 259.173 455.766 L 265.063 433.146 L 273.313 433.146 L 273.313 464.426 L 266.973 464.426 L 266.973 455.966 L 267.553 442.916 L 261.303 464.426 L 257.003 464.426 L 250.753 442.916 L 251.333 455.966 L 251.333 464.426 L 245.013 464.426 L 245.013 433.146 ZM 301.573 464.426 L 299.903 458.026 L 291.283 458.026 L 289.603 464.426 L 282.923 464.426 L 292.703 433.146 L 298.483 433.146 L 308.323 464.426 L 301.573 464.426 Z M 295.583 441.606 L 292.663 452.756 L 298.503 452.756 L 295.583 441.606 ZM 335.119 433.146 L 335.119 438.406 L 327.389 438.406 L 327.389 464.426 L 321.049 464.426 L 321.049 438.406 L 313.449 438.406 L 313.449 433.146 L 335.119 433.146 ZM 351.548 433.146 L 351.548 464.426 L 345.228 464.426 L 345.228 433.146 L 351.548 433.146 ZM 377.939 454.006 L 384.259 454.006 C 384.099 457.573 383.096 460.273 381.249 462.106 C 379.403 463.939 376.796 464.856 373.429 464.856 C 369.889 464.856 367.179 463.693 365.299 461.366 C 363.413 459.039 362.469 455.719 362.469 451.406 L 362.469 446.146 C 362.469 441.846 363.446 438.533 365.399 436.206 C 367.346 433.879 370.053 432.716 373.519 432.716 C 376.926 432.716 379.513 433.669 381.279 435.576 C 383.053 437.476 384.059 440.209 384.299 443.776 L 377.959 443.776 C 377.906 441.569 377.566 440.049 376.939 439.216 C 376.319 438.376 375.179 437.956 373.519 437.956 C 371.826 437.956 370.629 438.546 369.929 439.726 C 369.229 440.913 368.856 442.859 368.809 445.566 L 368.809 451.466 C 368.809 454.579 369.156 456.716 369.849 457.876 C 370.549 459.036 371.743 459.616 373.429 459.616 C 375.089 459.616 376.236 459.209 376.869 458.396 C 377.496 457.589 377.853 456.126 377.939 454.006 ZM 407.561 456.216 C 407.561 454.943 407.235 453.979 406.581 453.326 C 405.928 452.679 404.741 452.003 403.021 451.296 C 399.888 450.109 397.635 448.716 396.261 447.116 C 394.881 445.523 394.191 443.636 394.191 441.456 C 394.191 438.823 395.128 436.706 397.001 435.106 C 398.868 433.513 401.241 432.716 404.121 432.716 C 406.041 432.716 407.751 433.119 409.251 433.926 C 410.758 434.739 411.915 435.883 412.721 437.356 C 413.535 438.829 413.941 440.506 413.941 442.386 L 407.641 442.386 C 407.641 440.926 407.331 439.813 406.711 439.046 C 406.085 438.279 405.185 437.896 404.011 437.896 C 402.911 437.896 402.051 438.219 401.431 438.866 C 400.818 439.519 400.511 440.399 400.511 441.506 C 400.511 442.366 400.855 443.143 401.541 443.836 C 402.228 444.529 403.445 445.249 405.191 445.996 C 408.245 447.096 410.461 448.449 411.841 450.056 C 413.228 451.656 413.921 453.696 413.921 456.176 C 413.921 458.896 413.055 461.023 411.321 462.556 C 409.588 464.089 407.231 464.856 404.251 464.856 C 402.231 464.856 400.391 464.439 398.731 463.606 C 397.065 462.779 395.765 461.593 394.831 460.046 C 393.891 458.499 393.421 456.673 393.421 454.566 L 399.761 454.566 C 399.761 456.373 400.111 457.683 400.811 458.496 C 401.511 459.309 402.658 459.716 404.251 459.716 C 406.458 459.716 407.561 458.549 407.561 456.216 Z" transform="matrix(1, 0, 0, 1.0000009536743164, -22.57813262939453, -5.648707866668701)" style="line-height: 67.1999px; text-transform: uppercase; white-space: pre;"/>
</svg>