<?xml version="1.0" encoding="utf-8"?>
<svg viewBox="0 0 500 500" xmlns="http://www.w3.org/2000/svg" xmlns:bx="https://boxy-svg.com">
  <defs>
    <bx:guide x="100.569" y="-43.744" angle="90"/>
    <bx:guide x="118.698" y="-36.111" angle="90"/>
    <bx:guide x="118.698" y="-36.111" angle="90"/>
    <bx:guide x="-69.269" y="224.371" angle="0"/>
    <bx:guide x="-69.269" y="224.371" angle="0"/>
    <bx:guide x="-69.269" y="224.371" angle="0"/>
    <bx:guide x="-69.269" y="224.371" angle="0"/>
    <bx:guide x="-69.269" y="224.371" angle="0"/>
    <bx:guide x="358.196" y="320.431" angle="0"/>
    <bx:guide x="190.932" y="328.064" angle="0"/>
  </defs>
  <path d="M 50 50 L 450 50 L 450 450 L 50 450 Z" fill="none"/>
  <path d="M 108.333 316.666 L 108.333 350 C 154.333 350 191.667 387.334 191.667 433.334 L 225.001 433.334 C 225.001 368.834 172.833 316.666 108.333 316.666 Z M 108.333 383.334 L 108.333 433.334 L 158.333 433.334 C 158.333 405.666 136.001 383.334 108.333 383.334 Z M 108.333 250 L 108.333 283.334 C 191.167 283.334 258.333 350.5 258.333 433.334 L 291.667 433.334 C 291.667 332 209.667 250 108.333 250 Z M 358.333 66.834 L 191.667 66.666 C 173.333 66.666 158.333 81.666 158.333 100 L 158.333 222.834 C 169.833 225.5 181.001 229 191.667 233.5 L 191.667 133.334 L 358.333 133.334 L 358.333 350 L 307.833 350 C 316.501 370.834 321.833 393.166 323.667 416.666 L 358.333 416.666 C 376.667 416.666 391.667 401.666 391.667 383.334 L 391.667 100 C 391.667 81.666 376.667 66.834 358.333 66.834 Z"/>
  <path d="M 150 150 L 350 150 L 350 350 L 150 350 Z" fill="none"/>
  <path d="M 175 175 L 325 175 L 325 325 L 175 325 Z" fill="none"/>
  <path d="M 262.501 299.999 L 287.5 299.999 L 287.5 200 L 262.501 200 L 262.501 299.999 Z M 225.001 299.999 L 250 299.999 L 250 250 L 225.001 250 L 225.001 299.999 Z M 300.001 231.25 L 300.001 299.999 L 325 299.999 L 325 231.25 L 300.001 231.25 Z"/>
</svg>